<?xml version="1.0" encoding="UTF-8" standalone="no"?>
<!-- Created with Inkscape (http://www.inkscape.org/) -->

<svg
   width="1280"
   height="720"
   viewBox="0 0 338.66666 190.5"
   version="1.1"
   id="svg1"
   inkscape:version="1.4.3 (0d15f75042, 2025-12-25)"
   sodipodi:docname="Preview.svg"
   inkscape:export-filename="../About/Preview.png"
   inkscape:export-xdpi="96"
   inkscape:export-ydpi="96"
   xmlns:inkscape="http://www.inkscape.org/namespaces/inkscape"
   xmlns:sodipodi="http://sodipodi.sourceforge.net/DTD/sodipodi-0.dtd"
   xmlns="http://www.w3.org/2000/svg"
   xmlns:svg="http://www.w3.org/2000/svg">
  <sodipodi:namedview
     id="namedview1"
     pagecolor="#ffffff"
     bordercolor="#000000"
     borderopacity="0.25"
     inkscape:showpageshadow="2"
     inkscape:pageopacity="0.0"
     inkscape:pagecheckerboard="true"
     inkscape:deskcolor="#d1d1d1"
     inkscape:document-units="px"
     inkscape:zoom="0.70710678"
     inkscape:cx="509.82399"
     inkscape:cy="433.45646"
     inkscape:window-width="1500"
     inkscape:window-height="869"
     inkscape:window-x="0"
     inkscape:window-y="0"
     inkscape:window-maximized="1"
     inkscape:current-layer="layer1" />
  <defs
     id="defs1" />
  <g
     inkscape:label="Layer 1"
     inkscape:groupmode="layer"
     id="layer1">
    <path
       id="path14"
       style="fill:#000000;fill-opacity:1;stroke-width:0"
       d="M 161.66499,0 H 0 v 190.5 h 110.62056 z"
       sodipodi:nodetypes="ccccc" />
    <g
       id="g1"
       transform="matrix(0.7913328,0,0,0.7913328,9.1694846,38.917532)">
      <path
         d="M 41.869661,140.16836 V 100.50398 H 2.2052822 V 41.678054 H 41.869661 V 2.2052843 H 100.69559 V 41.678054 h 39.47278 v 58.825926 h -39.47278 v 39.66438 z"
         id="path1-6"
         style="fill:#007100;fill-opacity:1;stroke-width:0.191615" />
      <path
         d="m 63.083144,114.59941 -1.447089,-13.31319 c -2.315339,-0.57883 -4.437731,-1.447083 -6.367176,-2.604755 -1.929455,-1.157667 -3.569486,-2.508282 -4.920097,-4.051844 L 38.772096,100.12854 30.378995,86.815354 40.798012,79.001089 c -0.964728,-2.122394 -1.447092,-4.727151 -1.447092,-7.814267 0,-3.087116 0.482364,-5.69187 1.447092,-7.814265 L 30.378995,55.55829 38.772096,42.245103 50.348782,47.744027 c 1.350611,-1.543563 2.89417,-2.894176 4.630673,-4.051848 1.736503,-1.157669 3.955369,-2.025918 6.6566,-2.604754 l 1.447089,-13.313191 h 16.207357 l 1.447091,13.313191 c 2.701231,0.578836 4.920098,1.447085 6.656601,2.604754 1.736502,1.157672 3.280059,2.508285 4.630672,4.051848 l 11.576685,-5.498924 8.39311,13.313187 -10.41902,7.814267 c 0.96472,2.122395 1.44708,4.727149 1.44708,7.814265 0,3.087116 -0.48236,5.691873 -1.44708,7.814267 l 10.41902,7.814265 -8.39311,13.313186 -11.576685,-5.498919 c -1.350613,1.543562 -2.990644,2.894177 -4.920095,4.051844 -1.929451,1.157672 -4.051839,2.025925 -6.367178,2.604755 l -1.447091,13.31319 z M 84.789438,84.789438 c 3.66595,-3.665956 5.498924,-8.200161 5.498924,-13.602616 0,-5.402452 -1.832974,-9.936657 -5.498924,-13.602613 -3.665958,-3.66595 -8.200163,-5.498925 -13.602615,-5.498925 -5.402453,0 -9.936656,1.832975 -13.602614,5.498925 -3.665947,3.665956 -5.498924,8.200161 -5.498924,13.602613 0,5.402455 1.832977,9.93666 5.498924,13.602616 3.665958,3.665949 8.200161,5.498924 13.602614,5.498924 5.402452,0 9.936657,-1.832975 13.602615,-5.498924 z"
         id="path1"
         style="fill:#ffffff;fill-opacity:1;stroke-width:0.289418"
         sodipodi:nodetypes="ccsccccsccccsccccsccccsccccscccsscscscss" />
    </g>
    <path
       id="rect2"
       style="fill:#ffffff;fill-opacity:1;stroke-width:0"
       d="m 166.89989,0 -51.04391,190.5 h 177.30545 21.03489 l 24.47034,0 0,-190.5 h -24.47034 -21.03489 z"
       sodipodi:nodetypes="ccccccccc" />
    <path
       id="path13"
       style="fill:#007e71;fill-opacity:1;stroke-width:0"
       d="m 159.74576,0 -51.04443,190.5 h 7.63468 L 167.37992,0 Z" />
    <text
       xml:space="preserve"
       style="font-style:normal;font-variant:normal;font-weight:normal;font-stretch:normal;font-size:38.8056px;font-family:Arial;-inkscape-font-specification:Arial;writing-mode:lr-tb;direction:ltr;fill:#007e71;fill-opacity:1;stroke-width:0"
       x="162.65427"
       y="43.662361"
       id="text18"><tspan
         sodipodi:role="line"
         style="font-style:italic;font-variant:normal;font-weight:normal;font-stretch:normal;font-size:38.8056px;font-family:Sans;-inkscape-font-specification:Sans;stroke-width:0;fill:#007e71;fill-opacity:1"
         x="162.65427"
         y="43.662361"
         id="tspan19">Advanced</tspan></text>
    <text
       xml:space="preserve"
       style="font-style:normal;font-variant:normal;font-weight:normal;font-stretch:normal;font-size:38.8056px;font-family:Sans;-inkscape-font-specification:Sans;writing-mode:lr-tb;direction:ltr;fill:#007e71;fill-opacity:1;stroke-width:0"
       x="146.82066"
       y="107.95638"
       id="text21"><tspan
         sodipodi:role="line"
         id="tspan21"
         style="font-style:italic;stroke-width:0;fill:#007e71;fill-opacity:1"
         x="146.82066"
         y="107.95638">Medicine</tspan></text>
    <text
       xml:space="preserve"
       style="font-style:normal;font-variant:normal;font-weight:normal;font-stretch:normal;font-size:38.8056px;font-family:Sans;-inkscape-font-specification:Sans;writing-mode:lr-tb;direction:ltr;fill:#007e71;fill-opacity:1;stroke-width:0"
       x="131.46689"
       y="172.73021"
       id="text22"><tspan
         sodipodi:role="line"
         id="tspan22"
         style="font-style:italic;stroke-width:0;fill:#007e71;fill-opacity:1"
         x="131.46689"
         y="172.73021">Policies</tspan></text>
  </g>
</svg>
